<svg width="64" height="64" viewBox="0 0 64 64" fill="none" xmlns="http://www.w3.org/2000/svg">
<path d="M58.4387 31.1038C56.1387 20.7063 52.7275 14.0738 47.26 12.4575C46.2011 12.1486 45.103 11.9945 44 12C40.6387 12 37.9862 14 32 14C26.0137 14 23.3562 12 20 12C18.8509 11.9941 17.7066 12.1481 16.6 12.4575C11.125 14.0738 7.74248 20.7125 5.41623 31.1038C3.04123 41.7176 3.47123 50.1038 8.11373 51.7138C11.3637 52.8388 14.27 50.5126 17.0225 47.0888C20.1475 43.1888 23.9962 41.9888 32 41.9888C40.0037 41.9888 43.7025 43.1888 46.8325 47.0888C49.5825 50.5151 52.5962 52.8126 55.76 51.7338C60.8875 49.9826 60.815 41.8426 58.4387 31.1038Z" stroke="#8CA3A5" stroke-miterlimit="10"/>
<path d="M36.5 30.5C37.8807 30.5 39 29.3807 39 28C39 26.6193 37.8807 25.5 36.5 25.5C35.1193 25.5 34 26.6193 34 28C34 29.3807 35.1193 30.5 36.5 30.5Z" fill="#8CA3A5"/>
<path d="M42 36C41.5053 36 41.0217 35.8532 40.6104 35.5782C40.1992 35.3033 39.8787 34.9124 39.6897 34.4553C39.5007 33.9981 39.4515 33.4951 39.5485 33.01C39.6455 32.5249 39.8842 32.0794 40.2345 31.73C40.5847 31.3806 41.0308 31.143 41.5161 31.0473C42.0015 30.9515 42.5043 31.0019 42.961 31.1921C43.4178 31.3823 43.8078 31.7037 44.0817 32.1156C44.3557 32.5276 44.5012 33.0115 44.5 33.5063C44.4983 34.1682 44.2342 34.8025 43.7656 35.27C43.2969 35.7375 42.662 36 42 36Z" fill="#8CA3A5"/>
<path d="M42 25C43.3807 25 44.5 23.8807 44.5 22.5C44.5 21.1193 43.3807 20 42 20C40.6193 20 39.5 21.1193 39.5 22.5C39.5 23.8807 40.6193 25 42 25Z" fill="#8CA3A5"/>
<path d="M47.5 30.5C48.8807 30.5 50 29.3807 50 28C50 26.6193 48.8807 25.5 47.5 25.5C46.1193 25.5 45 26.6193 45 28C45 29.3807 46.1193 30.5 47.5 30.5Z" fill="#8CA3A5"/>
<path d="M20 22V34M26 28H14" stroke="#8CA3A5" stroke-linecap="round" stroke-linejoin="round"/>
</svg>
