<svg width="64" height="64" viewBox="0 0 64 64" fill="none" xmlns="http://www.w3.org/2000/svg">
<path d="M8 48V32C8 25.6348 10.5286 19.5303 15.0294 15.0294C19.5303 10.5286 25.6348 8 32 8C38.3652 8 44.4697 10.5286 48.9706 15.0294C53.4714 19.5303 56 25.6348 56 32V48" stroke="#8CA3A5" stroke-width="2" stroke-linecap="round" stroke-linejoin="round"/>
<path d="M56 50.6667C56 52.0812 55.4381 53.4377 54.4379 54.4379C53.4377 55.4381 52.0812 56 50.6667 56H48C46.5855 56 45.229 55.4381 44.2288 54.4379C43.2286 53.4377 42.6667 52.0812 42.6667 50.6667V42.6667C42.6667 41.2522 43.2286 39.8957 44.2288 38.8955C45.229 37.8953 46.5855 37.3334 48 37.3334H56V50.6667ZM8 50.6667C8 52.0812 8.5619 53.4377 9.5621 54.4379C10.5623 55.4381 11.9188 56 13.3333 56H16C17.4145 56 18.771 55.4381 19.7712 54.4379C20.7714 53.4377 21.3333 52.0812 21.3333 50.6667V42.6667C21.3333 41.2522 20.7714 39.8957 19.7712 38.8955C18.771 37.8953 17.4145 37.3334 16 37.3334H8V50.6667Z" stroke="#8CA3A5" stroke-width="2" stroke-linecap="round" stroke-linejoin="round"/>
</svg>
