<?xml version="1.0" encoding="iso-8859-1"?>
<!-- Generator: Adobe Illustrator 19.0.0, SVG Export Plug-In . SVG Version: 6.00 Build 0)  -->
<svg version="1.1" id="Layer_1" xmlns="http://www.w3.org/2000/svg" xmlns:xlink="http://www.w3.org/1999/xlink" x="0px" y="0px"
	 viewBox="0 0 500 500" style="enable-background:new 0 0 500 500;" xml:space="preserve">
<g>
	<g>
		<path d="M122.736,249.016c-0.068-6.364,4.944-11.576,11.264-11.828c-0.22-4.7-0.584-9.4-1.024-14.076
			c-0.412,0.044-0.832,0.088-1.236,0.088c-5.696,0-10.696-4.168-11.576-9.976c-0.96-6.368,3.404-12.3,9.744-13.304
			c-0.792-4.62-1.716-9.212-2.724-13.772c-0.92,0.224-1.852,0.364-2.772,0.364c-5.056,0-9.728-3.304-11.232-8.412
			c-1.836-6.204,1.708-12.724,7.916-14.556l0.128-0.04c-1.364-4.456-2.832-8.884-4.412-13.26c-1.428,0.576-2.9,0.888-4.348,0.888
			c-4.468,0-8.736-2.564-10.696-6.9c-2.656-5.904-0.032-12.844,5.868-15.508l0.3-0.128c-1.936-4.228-3.96-8.408-6.112-12.524
			c-1.868,1.1-3.916,1.648-5.956,1.648c-3.9,0-7.712-1.944-9.94-5.5c-3.432-5.488-1.772-12.724,3.716-16.16L90,95.84
			c-5.068-7.876-10.576-15.464-16.496-22.748C28.12,118.4,0,180.968,0,250c0,69.956,28.916,133.256,75.384,178.676
			c6.524-8.228,12.508-16.844,17.956-25.788l-0.344-0.212c-5.564-3.308-7.388-10.5-4.076-16.068c3.24-5.46,10.208-7.28,15.724-4.236
			c2.064-4.164,4-8.384,5.844-12.648l-0.26-0.112c-5.956-2.528-8.744-9.408-6.216-15.364c2.456-5.8,9.028-8.544,14.864-6.372
			c1.484-4.416,2.844-8.876,4.12-13.368l-0.072-0.016c-6.248-1.692-9.948-8.116-8.264-14.376c1.644-6.068,7.748-9.672,13.824-8.352
			c0.916-4.592,1.708-9.224,2.412-13.864c-6.332-0.896-10.796-6.696-9.988-13.068c0.8-6.256,6.404-10.708,12.612-10.164
			c0.344-4.692,0.568-9.392,0.692-14.1C127.916,260.444,122.82,255.356,122.736,249.016z"/>
	</g>
</g>
<g>
	<g>
		<path d="M426.844,73.464c-5.812,7.172-11.228,14.64-16.212,22.388l0.36,0.22c5.488,3.436,7.152,10.672,3.72,16.16
			c-2.232,3.556-6.048,5.5-9.944,5.5c-2.032,0-4.08-0.544-5.936-1.64c-2.148,4.116-4.172,8.296-6.108,12.524l0.28,0.12
			c5.9,2.664,8.528,9.604,5.868,15.508c-1.96,4.336-6.228,6.9-10.7,6.9c-1.44,0-2.9-0.312-4.308-0.876
			c-1.584,4.38-3.048,8.8-4.412,13.26l0.088,0.028c6.204,1.832,9.752,8.352,7.912,14.556c-1.496,5.104-6.172,8.412-11.228,8.412
			c-0.908,0-1.812-0.136-2.724-0.352c-1.004,4.564-1.928,9.156-2.72,13.776c6.316,1.032,10.644,6.94,9.692,13.288
			c-0.88,5.808-5.88,9.976-11.58,9.976c-0.388,0-0.78-0.048-1.168-0.084c-0.44,4.68-0.796,9.38-1.024,14.08
			c6.28,0.284,11.264,5.48,11.196,11.82c-0.08,6.316-5.148,11.38-11.416,11.548c0.132,4.712,0.352,9.412,0.692,14.104
			c6.18-0.504,11.76,3.928,12.552,10.164c0.804,6.348-3.628,12.128-9.92,13.052c0.696,4.644,1.488,9.272,2.404,13.876
			c6.04-1.296,12.132,2.308,13.768,8.356c1.68,6.256-2.016,12.688-8.272,14.376l-0.02,0.008c1.268,4.488,2.632,8.944,4.112,13.364
			c5.828-2.144,12.38,0.588,14.828,6.384c2.528,5.956-0.26,12.836-6.224,15.364l-0.228,0.1c1.84,4.268,3.776,8.484,5.832,12.652
			c5.512-3.04,12.464-1.212,15.712,4.244c3.312,5.568,1.488,12.756-4.08,16.068l-0.332,0.208
			c5.372,8.816,11.256,17.312,17.676,25.44C471.232,382.932,500,319.772,500,250C500,181.152,472.016,118.72,426.844,73.464z"/>
	</g>
</g>
<g>
	<g>
		<path d="M386.76,415.108c-1.884,1.12-3.944,1.644-5.984,1.644c-4,0-7.9-2.04-10.084-5.724c-3.308-5.56-1.48-12.756,4.08-16.068
			l0.852-0.508c-2.576-5.076-4.984-10.252-7.26-15.492l-0.236,0.088c-1.488,0.628-3.048,0.936-4.568,0.936
			c-4.568,0-8.9-2.688-10.788-7.156c-2.528-5.952,0.248-12.836,6.208-15.364l0.84-0.352c-1.868-5.396-3.568-10.868-5.132-16.4
			l-0.248,0.068c-1.024,0.272-2.056,0.408-3.064,0.408c-5.164,0-9.896-3.44-11.304-8.668c-1.688-6.248,2-12.684,8.256-14.376
			l0.756-0.204c-1.152-5.62-2.132-11.296-2.984-17.02l-0.372,0.052c-0.504,0.06-1,0.088-1.496,0.088
			c-5.812,0-10.86-4.32-11.612-10.244c-0.82-6.416,3.732-12.28,10.148-13.1l0.66-0.084c-0.436-5.736-0.692-11.508-0.84-17.312
			l-0.576-0.008c-6.472-0.076-11.664-4.692-11.588-11.156c0.084-6.428,5.312-10.888,11.724-10.888c0.048,0,0.092,0,0.148,0h0.488
			c0.26-7.812,0.704-12.248,1.252-17.972l-0.68-0.452c-6.408-0.968-10.816-7.668-9.848-14.064c0.96-6.404,6.96-10.488,13.336-10.488
			h0.316c0.976-3.908,2.084-10.816,3.356-16.4l-0.756,0.044c-6.212-1.844-9.752-8.228-7.916-14.432
			c1.828-6.204,8.356-9.676,14.56-7.856l0.208,0.096c1.692-5.496,3.488-10.916,5.464-16.264l-0.796-0.352
			c-5.9-2.664-8.52-9.6-5.86-15.5c2.664-5.904,9.6-8.524,15.504-5.856l0.216,0.1c2.412-5.2,4.916-10.332,7.604-15.352l-0.796-0.504
			c-5.488-3.432-7.148-10.664-3.716-16.152c3.44-5.488,10.676-7.144,16.156-3.708l0.324,0.196
			c5.776-8.924,12.032-17.524,18.76-25.732C366.16,21.668,310.564,0,249.996,0C189.604,0,134.152,21.528,90.892,57.308
			c6.836,8.304,13.18,17.012,19.04,26.06l0.32-0.2c5.496-3.436,12.72-1.78,16.164,3.708c3.436,5.488,1.772,12.72-3.716,16.152
			l-0.792,0.5c2.696,5.02,5.188,10.156,7.6,15.356l0.212-0.1c5.9-2.668,12.84-0.044,15.504,5.86c2.664,5.9,0.04,12.84-5.86,15.504
			l-0.796,0.36c1.984,5.348,3.772,10.788,5.464,16.28l0.204-0.064c6.212-1.82,12.728,1.72,14.564,7.92
			c1.836,6.208-1.708,12.728-7.916,14.56l-0.756,0.228c1.276,5.584,2.372,11.244,3.348,16.936l0.324-0.052
			c6.396-0.928,12.368,3.44,13.332,9.848c0.968,6.404-3.436,12.368-9.84,13.332l-0.684,0.808c0.556,5.724,0.992,10.16,1.256,17.972
			h0.488c0.056,0,0.1,0,0.148,0c6.412,0,11.636,4.456,11.72,10.888c0.076,6.464-5.112,11.428-11.584,11.508l-0.58-0.172
			c-0.148,5.808-0.4,11.496-0.832,17.232l0.656,0.04c6.416,0.812,10.964,6.656,10.152,13.084c-0.756,5.92-5.8,10.232-11.616,10.232
			c-0.496,0-0.992-0.036-1.496-0.096l-0.372-0.052c-0.856,5.724-1.832,11.396-2.984,17.02l0.764,0.2
			c6.248,1.692,9.94,8.128,8.256,14.376c-1.412,5.228-6.144,8.668-11.308,8.668c-1.008,0-2.04-0.132-3.064-0.408l-0.236-0.068
			c-1.568,5.532-3.272,11-5.144,16.396l0.832,0.352c5.96,2.528,8.748,9.412,6.22,15.368c-1.892,4.464-6.224,7.156-10.796,7.156
			c-1.52,0-3.08-0.308-4.568-0.932l-0.22-0.092c-2.292,5.24-4.7,10.416-7.28,15.488l0.852,0.512
			c5.564,3.308,7.388,10.508,4.084,16.068c-2.196,3.688-6.088,5.724-10.088,5.724c-2.036,0-4.104-0.524-5.98-1.644l-0.32-0.192
			c-6.272,10.232-13.148,20.056-20.636,29.388C135.884,479.1,190.536,500,249.996,500c59.644,0,114.452-21.02,157.468-56.004
			c-7.396-9.236-14.18-18.952-20.388-29.08L386.76,415.108z"/>
	</g>
</g>
<g>
</g>
<g>
</g>
<g>
</g>
<g>
</g>
<g>
</g>
<g>
</g>
<g>
</g>
<g>
</g>
<g>
</g>
<g>
</g>
<g>
</g>
<g>
</g>
<g>
</g>
<g>
</g>
<g>
</g>
</svg>
