<svg width="26" height="20" viewBox="0 0 26 20" fill="none" xmlns="http://www.w3.org/2000/svg">
<path d="M8.625 16.5625V10.875H16.5547C16.7868 10.875 17.0093 10.7828 17.1734 10.6187C17.3375 10.4546 17.4297 10.2321 17.4297 10C17.4297 9.76794 17.3375 9.54538 17.1734 9.38128C17.0093 9.21719 16.7868 9.125 16.5547 9.125H8.625V3.4375C8.62587 2.62554 8.9488 1.84709 9.52294 1.27294C10.0971 0.698803 10.8755 0.375869 11.6875 0.375H22.1875C22.9995 0.375869 23.7779 0.698803 24.3521 1.27294C24.9262 1.84709 25.2491 2.62554 25.25 3.4375V16.5625C25.2491 17.3745 24.9262 18.1529 24.3521 18.7271C23.7779 19.3012 22.9995 19.6241 22.1875 19.625H11.6875C10.8755 19.6241 10.0971 19.3012 9.52294 18.7271C8.9488 18.1529 8.62587 17.3745 8.625 16.5625ZM3.73758 10.875L6.61852 13.7565C6.77568 13.9219 6.86201 14.1422 6.85909 14.3704C6.85617 14.5985 6.76423 14.8165 6.60288 14.9779C6.44153 15.1392 6.22353 15.2312 5.99536 15.2341C5.76719 15.237 5.54691 15.1507 5.38148 14.9935L1.00648 10.6185C0.842514 10.4544 0.750406 10.232 0.750406 10C0.750406 9.76803 0.842514 9.54556 1.00648 9.38148L5.38148 5.00648C5.54691 4.84932 5.76719 4.76299 5.99536 4.76591C6.22353 4.76883 6.44153 4.86077 6.60288 5.02212C6.76423 5.18347 6.85617 5.40147 6.85909 5.62964C6.86201 5.85781 6.77568 6.07809 6.61852 6.24352L3.73758 9.125H8.625V10.875H3.73758Z" fill="#8CA3A5"/>
</svg>
