<svg width="48" height="48" viewBox="0 0 48 48" fill="none" xmlns="http://www.w3.org/2000/svg">
<path d="M42 24C42 14.0625 33.9375 6 24 6C14.0625 6 6 14.0625 6 24C6 33.9375 14.0625 42 24 42C33.9375 42 42 33.9375 42 24Z" stroke="white" stroke-width="2" stroke-miterlimit="10"/>
<path d="M32.8751 14.1499L21.8875 18.5449C21.1329 18.8467 20.4475 19.2986 19.8728 19.8733C19.2981 20.448 18.8462 21.1334 18.5444 21.888L14.1494 32.8755C14.0949 33.0118 14.0815 33.1612 14.111 33.305C14.1405 33.4488 14.2116 33.5808 14.3154 33.6846C14.4192 33.7884 14.5512 33.8595 14.695 33.889C14.8388 33.9185 14.9881 33.9051 15.1244 33.8505L26.1119 29.4555C26.8665 29.1538 27.552 28.7018 28.1267 28.1271C28.7013 27.5525 29.1533 26.867 29.4551 26.1124L33.8501 15.1249C33.9046 14.9886 33.918 14.8393 33.8885 14.6955C33.859 14.5517 33.7879 14.4197 33.6841 14.3159C33.5803 14.2121 33.4483 14.141 33.3045 14.1115C33.1607 14.082 33.0114 14.0953 32.8751 14.1499ZM23.9997 26.2502C23.5547 26.2502 23.1197 26.1183 22.7497 25.871C22.3797 25.6238 22.0913 25.2724 21.921 24.8613C21.7507 24.4501 21.7062 23.9977 21.793 23.5613C21.8798 23.1248 22.0941 22.7239 22.4087 22.4092C22.7234 22.0946 23.1243 21.8803 23.5608 21.7935C23.9972 21.7066 24.4496 21.7512 24.8608 21.9215C25.2719 22.0918 25.6233 22.3802 25.8705 22.7502C26.1178 23.1202 26.2497 23.5552 26.2497 24.0002C26.2497 24.597 26.0127 25.1693 25.5907 25.5912C25.1688 26.0132 24.5965 26.2502 23.9997 26.2502Z" fill="white"/>
</svg>
